<?xml version="1.0" encoding="UTF-8" standalone="no"?>
<!-- Created with Inkscape (http://www.inkscape.org/) -->

<svg
   width="320mm"
   height="160mm"
   viewBox="0 0 320 160"
   version="1.1"
   id="svg5"
   sodipodi:docname="svgback.svg"
   inkscape:version="1.1.1 (3bf5ae0d25, 2021-09-20)"
   xmlns:inkscape="http://www.inkscape.org/namespaces/inkscape"
   xmlns:sodipodi="http://sodipodi.sourceforge.net/DTD/sodipodi-0.dtd"
   xmlns="http://www.w3.org/2000/svg"
   xmlns:svg="http://www.w3.org/2000/svg">
  <sodipodi:namedview
     id="namedview7"
     pagecolor="#ffffff"
     bordercolor="#111111"
     borderopacity="1"
     inkscape:pageshadow="0"
     inkscape:pageopacity="0"
     inkscape:pagecheckerboard="1"
     inkscape:document-units="mm"
     showgrid="false"
     inkscape:zoom="0.37059484"
     inkscape:cx="1268.2314"
     inkscape:cy="576.10084"
     inkscape:window-width="1920"
     inkscape:window-height="1017"
     inkscape:window-x="-8"
     inkscape:window-y="-8"
     inkscape:window-maximized="1"
     inkscape:current-layer="layer1"
     inkscape:snap-object-midpoints="true"
     inkscape:snap-grids="true"
     inkscape:snap-others="true"
     inkscape:snap-to-guides="true" />
  <defs
     id="defs2" />
  <g
     inkscape:label="Layer 1"
     inkscape:groupmode="layer"
     id="layer1"
     transform="translate(73.131363,60.396046)" />
  <g
     inkscape:groupmode="layer"
     id="layer2"
     inkscape:label="Layer 2"
     transform="translate(73.131363,60.396046)">
    <path
       id="use9464"
       style="fill:#ff00ff;fill-opacity:0.5;stroke-width:0.185476"
       d="m -20.216392,-38.925559 -5.962627,9.771937 -4.770157,7.81764 -0.894345,1.46571 -6.351673,-3.87566 -6.35193,-3.87581 -3.875812,6.35193 -3.279427,5.37453 -3.279582,5.37479 -0.298115,0.48857 -7.32907,-4.47205 -2.981312,4.8859698 7.32907,4.47204 5.374534,3.27943 3.279426,-5.37454 3.279583,-5.3747898 3.279426,-5.37453 0.977396,0.59639 6.351673,3.87565 7.817647,4.7701698 4.770158,-7.8176398 4.770158,-7.81764 1.954532,1.19261 9.7719277,5.96263 5.96262703,-9.77194 -9.77192773,-5.96262 z"
       inkscape:tile-x0="66.084642"
       inkscape:tile-y0="93.614454" />
    <path
       id="use9464-3"
       style="fill:#ff0000;fill-opacity:0.495122;stroke-width:0.185476"
       d="m -38.151936,35.689076 2.232088,11.22771 1.78569,8.98227 0.334795,1.68407 -7.297913,1.45083 -7.298207,1.4509 1.450896,7.29821 1.227641,6.1752 1.227699,6.1755 0.111599,0.56135 -8.42092,1.6741 1.116043,5.61385 8.420919,-1.6741 6.175204,-1.22764 -1.227641,-6.1752 -1.227699,-6.1755 -1.227641,-6.1752 1.123003,-0.22326 7.297913,-1.45084 8.982281,-1.78569 -1.785691,-8.98227 -1.785691,-8.98227 2.245703,-0.44645 11.227708,-2.23209 -2.232087,-11.22771 -11.227709,2.23209 z"
       inkscape:tile-x0="66.084642"
       inkscape:tile-y0="93.614454" />
    <path
       id="use9464-3-3"
       style="fill:#00ffff;fill-opacity:0.495122;stroke-width:0.185476"
       d="m 23.647457,-28.005541 10.839526,3.680808 8.671719,2.944682 1.625843,0.552099 -2.3925,7.04559 -2.392589,7.0458854 7.045886,2.3925887 5.9617,2.0244325 5.961989,2.02453059 0.541944,0.18402656 -2.760648,8.12978235 5.419758,1.8404043 2.760647,-8.1297806 2.024432,-5.9617001 -5.9617,-2.0244326 -5.96199,-2.0245306 -5.9617,-2.0244325 0.368156,-1.084185 2.392491,-7.045596 2.944687,-8.671727 -8.671719,-2.944682 -8.671719,-2.944682 0.736213,-2.168059 3.680809,-10.839527 -10.839527,-3.680808 -3.680808,10.839527 z"
       inkscape:tile-x0="66.084642"
       inkscape:tile-y0="93.614454" />
    <path
       id="use9464-32"
       style="fill:#0000ff;fill-opacity:0.5;stroke-width:0.185476"
       d="m 24.63403,63.574041 11.126014,-2.693596 8.900921,-2.154896 1.668814,-0.404012 1.750803,7.231814 1.75088,7.232106 7.232106,-1.750883 6.119273,-1.48146 6.119565,-1.481536 0.55627,-0.134672 2.020218,8.344652 5.563008,-1.346797 -2.020225,-8.344645 -1.481461,-6.119276 -6.119277,1.481471 -6.119571,1.48153 -6.119267,1.481467 -0.269414,-1.112838 -1.750811,-7.231807 -2.154894,-8.900933 -8.900918,2.154894 -8.900912,2.1549 -0.538766,-2.225371 -2.693575,-11.126007 -11.126022,2.693591 2.693589,11.126007 z"
       inkscape:tile-x0="66.084642"
       inkscape:tile-y0="93.614454" />
    <path
       id="use9464-2"
       style="fill:#ff00ff;fill-opacity:0.5;stroke-width:0.185476"
       d="m 130.83872,81.83857 -2.69358,-11.126021 -2.15491,-8.900919 -0.40401,-1.668814 7.23181,-1.750803 7.2321,-1.750882 -1.75088,-7.232104 -1.48146,-6.119274 -1.48153,-6.119563 -0.13468,-0.556267 8.34465,-2.020218 -1.34679,-5.563015 -8.34464,2.020226 -6.11928,1.481466 1.48147,6.119274 1.48153,6.119571 1.48147,6.119267 -1.11284,0.269414 -7.23181,1.750811 -8.90092,2.154887 2.15489,8.900918 2.15489,8.900919 -2.22536,0.538759 -11.12601,2.693578 2.69359,11.126021 11.12601,-2.693578 z"
       inkscape:tile-x0="66.084642"
       inkscape:tile-y0="93.614454" />
    <path
       id="use9464-3-9"
       style="fill:#00ffff;fill-opacity:0.495122;stroke-width:0.185476"
       d="m 227.32909,72.964254 -9.51751,-6.360871 -7.6141,-5.08875 -1.42755,-0.954078 4.13451,-6.186294 4.13467,-6.186555 -6.18655,-4.134679 -5.2346,-3.498446 -5.23485,-3.49863 -0.47585,-0.318022 4.77072,-7.138257 -4.75875,-3.180425 -4.77073,7.138257 -3.49845,5.234599 5.2346,3.498453 5.23485,3.498623 5.2346,3.498453 -0.63621,0.95195 -4.1345,6.1863 -5.08876,7.614105 7.6141,5.08875 7.61409,5.088751 -1.27226,1.903637 -6.36086,9.517516 9.51751,6.360864 6.36086,-9.517509 z"
       inkscape:tile-x0="66.084642"
       inkscape:tile-y0="93.614454" />
    <path
       id="use9464-3-3-1"
       style="fill:#ff0000;fill-opacity:0.495122;stroke-width:0.185476"
       d="m 125.52851,4.0033803 0.74991,-11.4228425 0.59994,-9.1383868 0.11249,-1.713337 7.42474,0.487444 7.42505,0.487454 0.48746,-7.42505 0.41245,-6.282522 0.41247,-6.282827 0.0375,-0.571106 8.56727,0.562438 0.37496,-5.711415 -8.56727,-0.562439 -6.28253,-0.41245 -0.41245,6.282522 -0.41247,6.282827 -0.41245,6.282522 -1.14252,-0.075 -7.42475,-0.487434 -9.13839,-0.599941 -0.59993,9.138377 -0.59995,9.1383868 -2.28472,-0.1499923 -11.42284,-0.7499113 -0.74992,11.42284 11.42284,0.7499137 z"
       inkscape:tile-x0="66.084642"
       inkscape:tile-y0="93.614454" />
    <path
       id="use9464-32-0"
       style="fill:#0000ff;fill-opacity:0.5;stroke-width:0.185476"
       d="m 229.10325,-24.366125 -11.12602,2.693589 -8.90091,2.154901 -1.66883,0.404006 -1.7508,-7.231815 -1.75088,-7.232104 -7.23211,1.750881 -6.11926,1.481467 -6.11957,1.48153 -0.55627,0.134675 -2.02022,-8.344652 -5.56301,1.346798 2.02023,8.344645 1.48146,6.119274 6.11928,-1.481466 6.11957,-1.481531 6.11927,-1.481466 0.26941,1.112838 1.75081,7.231807 2.15489,8.9009257 8.90093,-2.1548867 8.9009,-2.154908 0.53877,2.225378 2.69358,11.12600584 11.12601,-2.69359604 -2.69359,-11.1260068 z"
       inkscape:tile-x0="66.084642"
       inkscape:tile-y0="93.614454" />
  </g>
</svg>
