<?xml version="1.0" encoding="UTF-8" standalone="no"?>
<!-- Created with Inkscape (http://www.inkscape.org/) -->

<svg
   width="300.8382mm"
   height="143.63031mm"
   viewBox="0 0 300.8382 143.63031"
   version="1.1"
   id="svg5"
   sodipodi:docname="svgback.svg"
   inkscape:version="1.1.1 (3bf5ae0d25, 2021-09-20)"
   xmlns:inkscape="http://www.inkscape.org/namespaces/inkscape"
   xmlns:sodipodi="http://sodipodi.sourceforge.net/DTD/sodipodi-0.dtd"
   xmlns="http://www.w3.org/2000/svg"
   xmlns:svg="http://www.w3.org/2000/svg">
  <sodipodi:namedview
     id="namedview7"
     pagecolor="#ffffff"
     bordercolor="#111111"
     borderopacity="1"
     inkscape:pageshadow="0"
     inkscape:pageopacity="0"
     inkscape:pagecheckerboard="1"
     inkscape:document-units="mm"
     showgrid="false"
     inkscape:zoom="0.52410025"
     inkscape:cx="354.66159"
     inkscape:cy="-178.86246"
     inkscape:window-width="1920"
     inkscape:window-height="1017"
     inkscape:window-x="-8"
     inkscape:window-y="-8"
     inkscape:window-maximized="1"
     inkscape:current-layer="layer2"
     inkscape:snap-object-midpoints="true"
     inkscape:snap-grids="true"
     inkscape:snap-others="true"
     inkscape:snap-to-guides="true" />
  <defs
     id="defs2" />
  <g
     inkscape:label="Layer 1"
     inkscape:groupmode="layer"
     id="layer1"
     transform="translate(-6.1274857,-88.024982)" />
  <g
     inkscape:groupmode="layer"
     id="layer2"
     inkscape:label="Layer 2"
     transform="translate(-6.1274857,-88.024982)">
    <path
       id="use9464"
       style="fill:#ff00ff;fill-opacity:0.5;stroke-width:0.185476"
       d="m 51.501535,98.579723 -5.962627,9.771937 -4.770157,7.81764 -0.894345,1.46571 -6.351673,-3.87566 -6.35193,-3.87581 -3.875812,6.35193 -3.279427,5.37453 -3.279582,5.37479 -0.298115,0.48857 -7.3290699,-4.47205 -2.9813114,4.88597 7.3290693,4.47204 5.374534,3.27943 3.279426,-5.37454 3.279583,-5.37479 3.279426,-5.37453 0.977396,0.59639 6.351673,3.87565 7.817647,4.77017 4.770158,-7.81764 4.770158,-7.81764 1.954532,1.19261 9.771928,5.96263 5.962627,-9.77194 -9.771928,-5.96262 z"
       inkscape:tile-x0="66.084642"
       inkscape:tile-y0="93.614454" />
    <path
       id="use9464-3"
       style="fill:#ff0000;fill-opacity:0.495122;stroke-width:0.185476"
       d="m 34.124017,175.28132 2.232088,11.22771 1.78569,8.98227 0.334795,1.68407 -7.297913,1.45083 -7.298207,1.4509 1.450896,7.29821 1.227641,6.1752 1.227699,6.1755 0.111599,0.56135 -8.42092,1.6741 1.116043,5.61385 8.420919,-1.6741 6.175204,-1.22764 -1.227641,-6.1752 -1.227699,-6.1755 -1.227641,-6.1752 1.123003,-0.22326 7.297913,-1.45084 8.982281,-1.78569 -1.785691,-8.98227 -1.785691,-8.98227 2.245703,-0.44645 11.227708,-2.23209 -2.232087,-11.22771 -11.227709,2.23209 z"
       inkscape:tile-x0="66.084642"
       inkscape:tile-y0="93.614454" />
    <path
       id="use9464-3-3"
       style="fill:#00ffff;fill-opacity:0.495122;stroke-width:0.185476"
       d="m 113.56599,95.281321 2.23209,11.227709 1.78569,8.98227 0.33479,1.68407 -7.29791,1.45083 -7.29821,1.4509 1.4509,7.29821 1.22764,6.1752 1.2277,6.1755 0.1116,0.56135 -8.420922,1.6741 1.116042,5.61385 8.42092,-1.6741 6.1752,-1.22764 -1.22764,-6.1752 -1.2277,-6.1755 -1.22764,-6.1752 1.12301,-0.22326 7.29791,-1.45084 8.98228,-1.78569 -1.78569,-8.98227 -1.78569,-8.98227 2.2457,-0.44645 11.22771,-2.23209 -2.23209,-11.227709 -11.22771,2.23209 z"
       inkscape:tile-x0="66.084642"
       inkscape:tile-y0="93.614454" />
    <path
       id="use9464-32"
       style="fill:#0000ff;fill-opacity:0.5;stroke-width:0.185476"
       d="m 130.21369,180.14091 -5.96262,9.77194 -4.77016,7.81764 -0.89435,1.46571 -6.35167,-3.87566 -6.35193,-3.87581 -3.87581,6.35193 -3.279429,5.37453 -3.279582,5.37479 -0.298115,0.48857 -7.329069,-4.47205 -2.981312,4.88597 7.32907,4.47204 5.374533,3.27943 3.279424,-5.37454 3.27959,-5.37479 3.27942,-5.37453 0.9774,0.59639 6.35167,3.87565 7.81765,4.77017 4.77016,-7.81764 4.77015,-7.81764 1.95454,1.19261 9.77192,5.96263 5.96263,-9.77194 -9.77193,-5.96262 z"
       inkscape:tile-x0="66.084642"
       inkscape:tile-y0="93.614454" />
    <path
       id="use9464-2"
       style="fill:#ff00ff;fill-opacity:0.5;stroke-width:0.185476"
       d="m 177.97009,186.28124 9.77194,5.96263 7.81765,4.77015 1.46571,0.89435 -3.87566,6.35167 -3.87581,6.35193 6.35193,3.87581 5.37453,3.27943 5.37479,3.27958 0.48857,0.29811 -4.47205,7.32907 4.88597,2.98132 4.47204,-7.32907 3.27943,-5.37454 -5.37454,-3.27942 -5.37479,-3.27959 -5.37453,-3.27942 0.59639,-0.9774 3.87565,-6.35167 4.77017,-7.81764 -7.81764,-4.77016 -7.81764,-4.77016 1.19261,-1.95453 5.96263,-9.77193 -9.77194,-5.96263 -5.96263,9.77193 z"
       inkscape:tile-x0="66.084642"
       inkscape:tile-y0="93.614454" />
    <path
       id="use9464-3-9"
       style="fill:#00ffff;fill-opacity:0.495122;stroke-width:0.185476"
       d="m 254.6717,203.65875 11.22771,-2.23208 8.98227,-1.78569 1.68407,-0.3348 1.45083,7.29791 1.4509,7.29821 7.29821,-1.45089 6.1752,-1.22765 6.1755,-1.22769 0.56135,-0.1116 1.6741,8.42092 5.61385,-1.11605 -1.6741,-8.42092 -1.22764,-6.1752 -6.1752,1.22764 -6.1755,1.2277 -6.1752,1.22764 -0.22326,-1.123 -1.45084,-7.29791 -1.78569,-8.98228 -8.98227,1.78569 -8.98227,1.78569 -0.44645,-2.2457 -2.23209,-11.22771 -11.22771,2.23209 2.23209,11.2277 z"
       inkscape:tile-x0="66.084642"
       inkscape:tile-y0="93.614454" />
    <path
       id="use9464-3-3-1"
       style="fill:#ff0000;fill-opacity:0.495122;stroke-width:0.185476"
       d="m 174.67169,124.21679 11.22771,-2.23209 8.98228,-1.78569 1.68407,-0.33479 1.45083,7.29791 1.4509,7.29821 7.29821,-1.4509 6.1752,-1.22764 6.1755,-1.2277 0.56135,-0.1116 1.6741,8.42092 5.61385,-1.11604 -1.6741,-8.42092 -1.22764,-6.1752 -6.1752,1.22764 -6.1755,1.2277 -6.1752,1.22764 -0.22326,-1.12301 -1.45084,-7.29791 -1.78569,-8.98228 -8.98227,1.78569 -8.98228,1.78569 -0.44645,-2.2457 -2.23209,-11.227708 -11.22771,2.232088 2.23209,11.22771 z"
       inkscape:tile-x0="66.084642"
       inkscape:tile-y0="93.614454" />
    <path
       id="use9464-32-0"
       style="fill:#0000ff;fill-opacity:0.5;stroke-width:0.185476"
       d="m 259.53129,107.56908 9.77194,5.96263 7.81764,4.77015 1.46571,0.89436 -3.87566,6.35167 -3.87581,6.35193 6.35193,3.87581 5.37453,3.27942 5.37479,3.27959 0.48857,0.29811 -4.47205,7.32907 4.88597,2.98131 4.47204,-7.32907 3.27943,-5.37453 -5.37454,-3.27943 -5.37479,-3.27959 -5.37453,-3.27942 0.59639,-0.9774 3.87565,-6.35167 4.77017,-7.81764 -7.81764,-4.77017 -7.81764,-4.77014 1.19261,-1.95455 5.96263,-9.771918 -9.77194,-5.96262 -5.96262,9.77193 z"
       inkscape:tile-x0="66.084642"
       inkscape:tile-y0="93.614454" />
  </g>
</svg>
