<?xml version="1.0" encoding="UTF-8" standalone="no"?>
<!-- Created with Inkscape (http://www.inkscape.org/) -->

<svg
   width="98.085098mm"
   height="147.12659mm"
   viewBox="0 0 98.085098 147.12659"
   version="1.1"
   id="svg5"
   inkscape:version="1.1.1 (3bf5ae0d25, 2021-09-20)"
   sodipodi:docname="tile.svg"
   xmlns:inkscape="http://www.inkscape.org/namespaces/inkscape"
   xmlns:sodipodi="http://sodipodi.sourceforge.net/DTD/sodipodi-0.dtd"
   xmlns="http://www.w3.org/2000/svg"
   xmlns:svg="http://www.w3.org/2000/svg">
  <sodipodi:namedview
     id="namedview7"
     pagecolor="#ffffff"
     bordercolor="#111111"
     borderopacity="1"
     inkscape:pageshadow="0"
     inkscape:pageopacity="0"
     inkscape:pagecheckerboard="1"
     inkscape:document-units="mm"
     showgrid="false"
     inkscape:zoom="0.66368547"
     inkscape:cx="238.06458"
     inkscape:cy="397.02542"
     inkscape:window-width="1920"
     inkscape:window-height="1017"
     inkscape:window-x="-8"
     inkscape:window-y="-8"
     inkscape:window-maximized="1"
     inkscape:current-layer="layer1" />
  <defs
     id="defs2" />
  <g
     inkscape:label="Layer 1"
     inkscape:groupmode="layer"
     id="layer1"
     transform="translate(-42.11708,-41.050801)">
    <path
       id="rect21803"
       style="fill:#410082;fill-opacity:1;stroke-width:0.898985"
       d="M 42.11708,85.188488 V 144.03971 L 61.733672,114.6141 Z" />
    <rect
       style="fill:#800080;fill-opacity:1;stroke-width:0.467848"
       id="rect45095"
       width="17.682493"
       height="17.682493"
       x="124.52042"
       y="-4.4534898"
       transform="matrix(0.55470388,0.83204784,-0.55470388,0.83204784,0,0)" />
    <path
       id="rect45923"
       style="fill:#bf80ff;fill-opacity:1;stroke-width:0.449497"
       d="m 42.11708,144.03971 v 29.42487 l 9.808295,-14.71208 z" />
    <path
       id="rect47173"
       style="fill:#bf80ff;fill-opacity:1;stroke-width:0.449497"
       d="M 42.11708,55.763606 V 85.188488 L 51.925375,70.476417 Z" />
    <path
       id="rect47175"
       style="fill:#410082;fill-opacity:1;stroke-width:0.898985"
       d="m 140.20218,85.188488 -19.61731,29.425612 19.61731,29.42561 z" />
    <path
       id="rect47185"
       style="fill:#bf80ff;fill-opacity:1;stroke-width:0.449497"
       d="m 140.20147,144.04042 -9.8083,14.71208 9.8083,14.71138 z" />
    <path
       id="rect47189"
       style="fill:#bf80ff;fill-opacity:1;stroke-width:0.449497"
       d="m 140.20147,55.764342 -9.8083,14.712075 9.8083,14.711363 z" />
    <rect
       style="fill:#800080;fill-opacity:1;stroke-width:0.467848"
       id="rect47207"
       width="17.682493"
       height="17.682493"
       x="159.88542"
       y="-39.818504"
       transform="matrix(0.55470388,0.83204784,-0.55470388,0.83204784,0,0)" />
    <path
       id="rect47407"
       style="fill:#410082;fill-opacity:1;stroke-width:0.898985"
       d="M 71.542684,41.050801 91.159273,70.476417 110.77658,41.050801 Z" />
    <path
       id="rect47413"
       style="fill:#800080;fill-opacity:1;stroke-width:0.449497"
       d="m 110.77658,41.050801 9.80829,14.712805 9.8083,-14.712805 z" />
    <rect
       style="fill:#bf80ff;fill-opacity:1;stroke-width:0.467848"
       id="rect47417"
       width="17.682493"
       height="17.682493"
       x="124.52042"
       y="-39.818504"
       transform="matrix(0.55470388,0.83204784,-0.55470388,0.83204784,0,0)" />
    <path
       id="rect47419"
       style="fill:#800080;fill-opacity:1;stroke-width:0.449497"
       d="m 51.925375,41.050801 9.808297,14.712805 9.809012,-14.712805 z" />
    <path
       id="rect47587"
       style="fill:#410082;fill-opacity:1;stroke-width:0.898985"
       d="M 91.159273,158.7525 71.542684,188.17739 H 110.77658 Z" />
    <path
       id="rect47593"
       style="fill:#800080;fill-opacity:1;stroke-width:0.449497"
       d="m 120.58487,173.46458 -9.80829,14.71281 h 19.61659 z" />
    <path
       id="rect47599"
       style="fill:#800080;fill-opacity:1;stroke-width:0.449497"
       d="m 61.733672,173.46458 -9.808297,14.71281 h 19.617309 z" />
    <rect
       style="fill:#bf80ff;fill-opacity:1;stroke-width:0.467848"
       id="rect47601"
       width="17.682493"
       height="17.682493"
       x="159.88542"
       y="-4.4534898"
       transform="matrix(0.55470388,0.83204784,-0.55470388,0.83204784,0,0)" />
  </g>
</svg>
